<?xml version="1.0" standalone="no"?>
<!DOCTYPE svg PUBLIC "-//W3C//DTD SVG 20010904//EN"
 "http://www.w3.org/TR/2001/REC-SVG-20010904/DTD/svg10.dtd">
<svg version="1.0" xmlns="http://www.w3.org/2000/svg"
 width="256.000000pt" height="256.000000pt" viewBox="0 0 256.000000 256.000000"
 preserveAspectRatio="xMidYMid meet">
<metadata>
Created by potrace 1.11, written by Peter Selinger 2001-2013
</metadata>
<g transform="translate(0.000000,256.000000) scale(0.100000,-0.100000)"
fill="#000000" stroke="none">
<path d="M422 2353 c-6 -2 -10 -9 -7 -14 3 -4 -6 -11 -20 -15 -14 -3 -25 -12
-25 -18 0 -7 -8 -21 -18 -32 -11 -11 -17 -29 -16 -39 4 -23 11 -122 20 -290
13 -205 5 -739 -11 -764 -1 -3 -6 -49 -10 -101 -3 -52 -8 -108 -10 -125 -4
-27 -13 -147 -20 -265 -2 -25 -6 -91 -10 -147 -5 -71 -4 -103 3 -103 6 0 14
-9 17 -20 3 -11 17 -23 30 -26 13 -3 26 -12 29 -19 3 -8 14 -12 28 -10 121 24
587 24 758 0 14 -2 52 -6 85 -10 33 -4 69 -9 80 -11 11 -2 40 -6 65 -9 25 -4
68 -10 95 -15 44 -8 98 -16 170 -25 60 -8 113 -16 135 -20 14 -3 45 -7 70 -10
25 -3 56 -8 70 -10 99 -16 128 -16 133 -1 4 9 13 16 21 16 8 0 17 9 21 19 3
11 12 21 19 24 8 3 12 17 10 34 -14 119 -20 479 -9 578 7 72 27 227 31 250 2
10 6 37 10 60 3 22 21 126 41 230 19 105 37 204 39 220 3 17 6 41 8 55 2 14 7
36 10 50 5 23 12 68 21 134 3 15 7 35 9 45 3 9 8 36 11 61 2 25 7 60 9 78 3
24 0 35 -14 42 -11 6 -16 17 -13 29 4 16 0 19 -21 17 -15 -2 -24 -1 -21 2 2 3
0 11 -6 18 -9 11 -33 12 -108 6 -124 -9 -513 -9 -616 1 -117 11 -215 22 -280
31 -22 4 -60 8 -85 11 -25 3 -56 8 -70 10 -35 6 -77 13 -130 20 -25 3 -63 8
-85 12 -43 6 -57 8 -150 18 -33 3 -76 8 -95 10 -19 3 -62 7 -95 10 -33 4 -67
8 -75 10 -8 2 -21 1 -28 -2z m505 -350 c1 -24 1 -25 -7 -8 -11 26 -12 35 -2
35 4 0 8 -12 9 -27z m-23 -8 c3 -8 1 -15 -3 -15 -5 0 -11 7 -15 15 -3 8 -1 15
3 15 5 0 11 -7 15 -15z m87 -21 c-12 -15 -19 -30 -15 -33 3 -3 15 6 26 22 11
15 25 27 31 27 7 -1 6 -6 -3 -13 -24 -19 -63 -77 -51 -77 6 0 15 8 20 19 10
18 55 22 69 5 4 -4 -1 -4 -10 -1 -17 6 -35 -7 -21 -16 5 -2 2 -2 -4 -1 -13 3
-14 0 -17 -34 0 -11 -8 -27 -16 -37 -14 -17 -13 -17 9 -10 20 6 22 4 16 -14
-4 -15 -2 -20 7 -18 7 2 10 2 6 0 -5 -3 -8 -9 -8 -14 0 -6 4 -8 9 -5 5 3 15
-2 22 -12 13 -15 12 -16 -3 -3 -12 9 -18 10 -18 2 0 -6 7 -14 15 -17 8 -4 15
-13 15 -21 0 -11 -6 -8 -20 8 -10 13 -19 19 -20 12 0 -6 5 -15 10 -18 6 -4 8
-16 4 -27 -6 -19 -5 -19 22 -1 16 10 25 13 21 7 -3 -6 2 -19 13 -29 11 -10 20
-22 20 -27 0 -5 -11 3 -23 18 -17 19 -28 25 -38 18 -22 -13 -37 -13 -49 1 -7
9 -6 16 4 24 16 13 11 45 -5 35 -5 -3 -7 -11 -3 -17 3 -7 -2 -3 -10 7 -24 30
-18 43 17 37 12 -2 8 17 -9 33 -20 20 -31 20 -31 1 0 -9 6 -14 14 -11 21 8 15
-2 -8 -15 -17 -8 -20 -8 -14 1 5 8 3 11 -6 8 -9 -3 -14 -19 -13 -41 0 -25 -3
-34 -10 -27 -5 5 -17 10 -25 10 -11 0 -10 -4 5 -19 10 -10 22 -17 25 -15 3 2
6 -3 6 -11 0 -10 -8 -8 -28 8 -18 14 -26 28 -23 39 4 14 1 16 -13 12 -13 -4
-15 -3 -5 4 8 5 14 13 14 17 0 4 -6 12 -14 16 -10 7 -9 9 5 9 10 0 15 5 12 10
-4 6 -10 8 -14 6 -4 -3 -8 1 -8 9 0 8 9 12 27 10 20 -3 26 1 26 15 0 11 -7 22
-14 25 -9 3 -12 0 -9 -9 5 -13 -16 -17 -28 -4 -9 9 46 41 72 41 19 0 21 2 12
13 -9 11 -15 11 -25 3 -11 -9 -18 -8 -30 2 -13 11 -15 10 -12 -6 1 -10 -4 -20
-12 -22 -13 -4 -13 -3 0 6 8 6 10 11 5 11 -6 0 -11 11 -11 25 0 14 4 25 9 25
5 0 6 -8 2 -17 -5 -15 -4 -16 7 -5 11 11 10 16 -4 26 -16 12 -14 13 15 13 18
1 25 -2 17 -6 -18 -7 -20 -43 -3 -48 8 -3 11 3 8 16 -2 10 3 22 10 25 10 3 12
0 9 -12 -3 -9 8 -1 25 18 17 19 31 39 31 44 0 5 3 7 6 3 4 -3 -3 -18 -15 -33z
m99 3 c0 -5 -7 -7 -15 -4 -21 9 -28 -10 -8 -22 10 -6 13 -11 6 -11 -6 0 -14 4
-18 10 -3 5 -13 6 -22 3 -13 -5 -13 -3 3 14 19 20 54 27 54 10z m234 -13 c-3
-16 -1 -23 6 -19 5 3 10 1 10 -4 0 -6 -5 -11 -11 -11 -5 0 -7 -5 -4 -10 4 -6
1 -9 -6 -8 -6 2 -14 -3 -16 -10 -3 -8 1 -10 11 -6 9 3 16 1 16 -6 0 -6 -4 -9
-9 -6 -8 5 -25 -29 -22 -46 1 -5 -2 -7 -6 -7 -20 3 -26 -2 -13 -11 9 -6 11
-10 3 -10 -7 0 -10 -7 -7 -17 5 -15 4 -15 -4 -3 -6 8 -8 18 -6 22 3 4 1 8 -4
8 -16 0 -21 -12 -12 -29 5 -10 5 -23 0 -31 -7 -12 -11 -12 -26 1 -16 12 -17
12 -12 -2 3 -9 2 -22 -2 -29 -4 -7 -3 -24 2 -36 8 -17 8 -27 -1 -38 -13 -16
-41 -11 -41 6 0 6 6 5 15 -2 12 -10 16 -9 22 6 4 10 2 19 -5 22 -7 2 -10 8 -6
13 3 5 0 9 -6 9 -7 0 -5 7 4 16 9 8 14 20 11 25 -11 16 5 31 20 19 8 -7 16 -7
19 -2 3 6 -1 13 -10 16 -13 5 -14 9 -4 21 7 8 9 15 5 15 -4 0 -2 7 5 15 7 9
19 14 26 11 8 -3 18 3 24 14 13 25 13 27 -5 27 -9 0 -14 -5 -12 -12 3 -6 -5
-11 -17 -12 -11 0 -15 1 -8 4 6 3 10 9 6 14 -3 5 0 9 6 9 6 0 8 5 4 12 -4 6
-3 8 3 5 5 -3 19 0 30 8 15 10 19 23 17 45 -2 16 1 30 6 30 5 0 7 -12 4 -26z
m41 -21 c-1 -10 2 -24 8 -31 8 -11 5 -19 -13 -33 -15 -12 -18 -17 -7 -13 19 7
24 -11 6 -22 -8 -4 -7 -9 2 -15 22 -14 27 -11 22 14 -3 12 -3 20 0 17 9 -9 17
-61 7 -55 -4 3 -11 -2 -14 -10 -4 -11 0 -15 11 -13 10 2 17 -5 18 -17 1 -11 6
-28 10 -37 7 -17 -3 -23 -27 -19 -14 2 -9 -17 8 -34 9 -9 19 -13 22 -10 4 3 1
10 -7 14 -10 7 -10 9 1 14 20 7 20 -28 0 -47 -13 -11 -21 -12 -32 -5 -13 9
-12 10 2 5 10 -3 20 -1 23 4 3 5 -4 11 -15 15 -11 3 -19 12 -17 18 1 7 -7 11
-18 9 -17 -2 -16 0 4 12 14 8 26 25 28 40 4 26 3 26 -15 9 -10 -10 -14 -21 -9
-24 12 -9 -22 -21 -36 -12 -6 4 -8 0 -5 -9 4 -8 1 -15 -7 -15 -7 0 -10 8 -7
21 4 21 4 21 -12 1 -10 -11 -15 -15 -12 -9 3 7 -1 15 -10 18 -12 4 -15 2 -10
-9 3 -8 1 -15 -4 -15 -6 0 -10 7 -10 15 0 8 -4 15 -10 15 -13 0 -13 -6 1 -33
10 -21 10 -21 -6 -2 -18 23 -14 41 9 39 9 -1 16 2 16 7 0 5 5 9 11 9 5 0 7 -4
4 -10 -3 -5 1 -10 10 -10 10 0 13 5 9 13 -6 9 -4 9 8 -1 20 -16 68 3 68 27 0
14 -2 14 -11 1 -9 -13 -10 -12 -5 2 3 10 1 20 -5 23 -5 4 -7 17 -5 30 3 13 -1
26 -7 28 -9 3 -9 7 -1 18 11 13 14 28 15 72 0 9 4 17 9 17 4 0 7 -8 5 -17z
m219 9 c3 -5 -1 -9 -9 -9 -8 0 -12 4 -9 9 3 4 7 8 9 8 2 0 6 -4 9 -8z m-284
-13 c0 -4 -6 -9 -13 -12 -8 -3 -14 0 -14 7 0 7 6 13 14 13 7 0 13 -4 13 -8z
m240 -4 c-10 -13 -10 -19 4 -33 9 -10 13 -21 10 -24 -3 -4 4 -9 15 -13 16 -5
19 -11 13 -23 -5 -9 -8 -29 -7 -44 1 -19 -2 -25 -13 -21 -12 5 -12 2 -2 -17
l13 -24 33 37 c33 35 60 53 34 22 -8 -9 -9 -15 -2 -15 21 0 25 23 6 38 -18 13
-18 14 6 7 22 -7 23 -6 12 7 -10 13 -8 21 12 45 14 17 23 33 20 36 -3 3 0 8 7
13 8 4 10 3 5 -4 -11 -19 5 -14 21 6 13 16 14 16 5 -2 -11 -21 -5 -56 10 -56
5 0 6 5 2 12 -4 7 -3 8 4 4 7 -4 12 -3 12 3 0 5 -5 12 -10 14 -6 3 -5 4 2 3 7
-2 13 -9 13 -17 0 -8 4 -19 8 -26 4 -6 3 -14 -3 -18 -6 -4 -8 -11 -5 -16 4 -5
2 -9 -4 -9 -6 0 -8 -8 -5 -17 5 -14 4 -15 -4 -4 -6 8 -7 21 -4 30 5 14 4 14
-12 1 -16 -13 -20 -12 -30 2 -11 15 -13 15 -25 -3 -6 -11 -10 -30 -7 -42 3
-12 3 -16 0 -9 -3 6 -10 9 -15 6 -6 -3 -5 -12 3 -22 12 -15 11 -16 -5 -3 -9 8
-21 11 -24 7 -4 -4 -1 -11 6 -15 10 -7 11 -13 2 -30 -7 -11 -17 -21 -23 -21
-6 0 -8 -3 -5 -7 11 -10 -13 -32 -29 -26 -9 3 -12 13 -9 24 5 14 2 17 -8 13
-19 -7 -16 -33 5 -48 13 -10 14 -14 3 -30 -15 -20 -35 -13 -34 12 0 14 2 14 8
-2 6 -15 9 -17 16 -6 6 9 -1 21 -20 36 -29 23 -49 24 -27 2 7 -7 12 -17 12
-22 0 -6 -7 0 -16 12 -8 12 -12 28 -7 35 4 6 7 22 8 34 0 12 3 25 8 29 10 10
9 26 -1 20 -5 -3 -8 7 -7 22 1 20 6 26 19 24 15 -3 16 0 6 18 -9 16 -8 25 2
38 11 13 11 15 -2 10 -12 -4 -15 1 -14 21 2 39 3 41 15 41 8 0 7 -5 -1 -15z
m31 -25 c6 0 7 5 4 10 -3 6 -1 10 5 10 7 0 10 -6 8 -12 -6 -17 -31 -17 -34 0
-1 7 0 8 3 2 2 -5 9 -10 14 -10z m204 10 c3 -6 -1 -7 -9 -4 -18 7 -21 14 -7
14 6 0 13 -4 16 -10z m-185 -34 c0 -3 -4 -8 -10 -11 -5 -3 -10 -1 -10 4 0 6 5
11 10 11 6 0 10 -2 10 -4z m141 -90 c1 -6 0 -18 -1 -25 -1 -13 1 -13 14 -2 9
8 19 11 23 7 3 -3 1 -6 -5 -6 -7 0 -11 -5 -9 -12 1 -8 -9 -12 -26 -12 -16 1
-26 -3 -24 -10 2 -6 12 -10 21 -8 14 3 16 -1 10 -20 -6 -21 -6 -22 12 -8 17
13 18 13 8 0 -6 -8 -10 -26 -9 -38 1 -13 -4 -26 -12 -29 -7 -3 -10 -9 -7 -15
3 -5 -3 -4 -15 3 -21 14 -10 32 14 23 7 -3 11 4 9 18 -4 34 -5 35 -14 13 -8
-19 -9 -18 -9 4 -1 21 -3 22 -18 10 -17 -13 -17 -13 -1 7 12 14 15 23 7 31
-13 13 9 65 24 56 6 -3 7 -1 3 6 -6 9 -11 9 -22 0 -12 -10 -13 -9 -8 6 6 14 4
16 -6 10 -8 -5 -11 -4 -7 3 9 13 47 4 48 -12z m-841 -107 c0 -5 3 -8 8 -6 4 3
13 -1 20 -9 19 -21 -2 -17 -29 6 -13 10 -18 19 -11 20 6 0 12 -5 12 -11z m1
-36 c13 -16 12 -17 -3 -4 -10 7 -18 15 -18 17 0 8 8 3 21 -13z m199 -5 c10
-21 10 -21 -3 -6 -8 10 -17 15 -20 11 -4 -3 -7 -1 -7 5 0 20 19 13 30 -10z
m610 12 c0 -5 -5 -10 -11 -10 -5 0 -7 5 -4 10 3 6 8 10 11 10 2 0 4 -4 4 -10z
m-650 -10 c0 -5 -2 -10 -4 -10 -3 0 -8 5 -11 10 -3 6 -1 10 4 10 6 0 11 -4 11
-10z m173 -15 c-3 -9 -8 -14 -10 -11 -3 3 -2 9 2 15 9 16 15 13 8 -4z m221 -2
c4 -10 4 -14 0 -10 -4 4 -16 -1 -27 -10 -21 -18 -16 -3 8 24 13 16 12 16 19
-4z m83 -9 c-3 -3 -12 -4 -19 -1 -8 3 -5 6 6 6 11 1 17 -2 13 -5z m160 -26
c-3 -8 -6 -5 -6 6 -1 11 2 17 5 13 3 -3 4 -12 1 -19z m-142 2 c2 -4 -7 -6 -21
-4 -35 3 -41 12 -9 12 14 0 27 -4 30 -8z m162 -12 c-3 -8 -6 -5 -6 6 -1 11 2
17 5 13 3 -3 4 -12 1 -19z"/>
<path d="M956 1931 c-4 -5 -2 -12 3 -15 5 -4 12 -2 15 3 4 5 2 12 -3 15 -5 4
-12 2 -15 -3z"/>
<path d="M992 1902 c-13 -13 -30 -21 -38 -18 -7 3 -14 1 -14 -4 0 -5 -8 -7
-17 -4 -17 5 -17 5 -1 -6 13 -8 23 -8 38 0 16 9 19 8 13 -6 -5 -14 -3 -14 15
-3 15 10 18 16 9 21 -8 5 -9 8 -1 8 10 0 29 30 22 34 -2 1 -13 -9 -26 -22z"/>
<path d="M943 1853 c-7 -3 -13 -9 -13 -15 0 -6 6 -5 15 2 13 11 14 10 9 -4 -3
-9 -1 -16 5 -16 12 0 15 26 4 33 -5 2 -14 2 -20 0z"/>
<path d="M985 1849 c-11 -17 1 -21 15 -4 8 9 8 15 2 15 -6 0 -14 -5 -17 -11z"/>
<path d="M900 1810 c9 -6 9 -13 1 -28 -8 -15 -7 -22 2 -29 28 -22 34 -22 32 0
-4 37 -5 38 -17 31 -7 -4 -8 -3 -4 5 4 6 12 9 17 6 5 -4 17 -1 26 4 19 11 18
12 -36 16 -18 2 -28 -1 -21 -5z"/>
<path d="M995 1760 c-3 -5 -1 -10 4 -10 6 0 11 5 11 10 0 6 -2 10 -4 10 -3 0
-8 -4 -11 -10z"/>
<path d="M1021 1706 c-7 -8 -8 -17 -3 -20 6 -3 13 1 16 10 9 23 2 28 -13 10z"/>
<path d="M1245 1830 c-3 -6 1 -7 9 -4 18 7 21 14 7 14 -6 0 -13 -4 -16 -10z"/>
<path d="M1355 1900 c3 -5 8 -10 11 -10 2 0 4 5 4 10 0 6 -5 10 -11 10 -5 0
-7 -4 -4 -10z"/>
<path d="M1350 1811 c0 -6 5 -13 10 -16 6 -3 10 1 10 9 0 9 -4 16 -10 16 -5 0
-10 -4 -10 -9z"/>
<path d="M1393 1725 c0 -8 4 -12 9 -9 5 3 6 10 3 15 -9 13 -12 11 -12 -6z"/>
<path d="M1681 1874 c-11 -15 -18 -31 -14 -36 3 -6 9 -4 15 6 11 20 28 21 28
1 0 -16 12 -20 24 -7 4 4 12 7 17 7 5 0 9 5 8 10 0 6 -7 9 -15 7 -9 -2 -18 6
-21 17 -7 28 -17 26 -42 -5z m39 -9 c14 -19 14 -19 -2 -6 -10 7 -18 18 -18 24
0 6 1 8 3 6 1 -2 9 -13 17 -24z"/>
<path d="M1547 1852 c1 -8 3 -16 3 -18 0 -2 5 -4 10 -4 6 0 10 7 10 16 0 8 -4
13 -9 10 -5 -4 -11 -3 -14 1 -2 5 -2 2 0 -5z"/>
<path d="M1524 1803 c3 -21 14 -25 33 -14 14 8 14 10 3 11 -13 0 -13 2 -1 9
10 7 7 9 -11 8 -14 -1 -25 -7 -24 -14z"/>
<path d="M1600 1753 c-31 -39 -10 -72 24 -37 13 12 14 19 5 30 -6 7 -8 18 -4
24 13 21 -4 9 -25 -17z m28 -17 c-2 -1 -12 -8 -23 -16 -18 -14 -19 -13 -8 1 7
9 10 19 6 23 -4 4 1 4 10 0 10 -3 17 -7 15 -8z"/>
<path d="M1533 1758 c-13 -18 -10 -71 5 -76 7 -2 12 0 11 5 -3 20 2 34 11 28
14 -9 12 17 -4 38 -10 13 -15 14 -23 5z m22 -18 c3 -6 -1 -7 -9 -4 -18 7 -21
14 -7 14 6 0 13 -4 16 -10z"/>
<path d="M1585 1680 c4 -6 11 -8 16 -5 14 9 11 15 -7 15 -8 0 -12 -5 -9 -10z"/>
</g>
</svg>
